<svg width="103" height="24" viewBox="0 0 103 24" fill="none" xmlns="http://www.w3.org/2000/svg">
<path d="M4.77868 16.3169L14.3078 24L23.8368 16.3169L19.0673 11.5475L14.3078 16.3169L9.54815 11.5475L4.77868 16.3169Z" fill="#9945FF"/>
<path d="M0 7.68314L4.77868 11.5474L23.8368 0.894699L19.0582 7.68314L0 7.68314Z" fill="#19FB9B"/>
<path d="M14.3078 0L4.77868 7.68314L19.0663 7.68314L14.3078 0Z" fill="#7C5EFA"/>
<path d="M37.0089 7.76726V13.7415H40.8669C41.4234 13.7415 41.9417 13.6523 42.4141 13.4741C42.8864 13.2959 43.2876 13.0512 43.6177 12.7431C43.9447 12.4381 44.1955 12.0669 44.3722 11.6275C44.5458 11.1912 44.6326 10.7147 44.6326 10.198C44.6326 9.69279 44.5458 9.22132 44.3722 8.78502C44.1955 8.35179 43.9447 7.97758 43.6177 7.66478C43.2876 7.35506 42.8864 7.11332 42.4141 6.93509C41.9417 6.75687 41.4234 6.66776 40.8669 6.66776H37.0089V7.76726ZM35.2798 19.3971V5.0687H40.935C41.7958 5.0687 42.5866 5.21033 43.3052 5.49111C44.0268 5.77497 44.652 6.1738 45.1775 6.68534C45.703 7.19995 46.1167 7.80846 46.4127 8.50624C46.7088 9.20401 46.8568 9.95868 46.8568 10.7674C46.8568 11.5792 46.7088 12.3339 46.4127 13.0285C46.1167 13.7263 45.703 14.3317 45.1775 14.8464C44.652 15.3579 44.0268 15.7567 43.3052 16.0406C42.5866 16.3245 41.7958 16.466 40.935 16.466H39.1378V19.3971H35.2798Z" fill="black"/>
<path d="M54.891 16.5995C55.5284 16.5995 56.0916 16.4614 56.5803 16.1868C57.069 15.9153 57.4711 15.5475 57.7866 15.0855C58.099 14.6234 58.3313 14.0927 58.4803 13.4892C58.6295 12.8858 58.7041 12.2447 58.7041 11.5661C58.7041 10.8906 58.6295 10.2495 58.4803 9.6461C58.3313 9.04579 58.099 8.51508 57.7866 8.05305C57.4711 7.59102 57.069 7.22028 56.5803 6.94564C56.0916 6.67101 55.5284 6.53278 54.891 6.53278C54.2506 6.53278 53.6859 6.67101 53.1972 6.94564C52.7084 7.22028 52.3078 7.59102 51.9954 8.05305C51.6829 8.51508 51.4492 9.04579 51.2971 9.6461C51.145 10.2495 51.0688 10.8906 51.0688 11.5661C51.0688 12.2447 51.145 12.8858 51.2971 13.4892C51.4492 14.0927 51.6829 14.6234 51.9954 15.0855C52.3078 15.5475 52.7084 15.9153 53.1972 16.1868C53.6859 16.4614 54.2506 16.5995 54.891 16.5995ZM54.891 19.6348C53.7686 19.6348 52.7575 19.4119 51.8539 18.9661C50.9472 18.5171 50.1785 17.9119 49.5443 17.1461C48.9069 16.3803 48.4151 15.4967 48.0679 14.4911C47.7207 13.4856 47.5464 12.4216 47.5464 11.2993C47.5464 10.154 47.7207 9.0869 48.0679 8.10132C48.4151 7.11574 48.9069 6.25058 49.5443 5.5058C50.1785 4.76102 50.9472 4.17062 51.8539 3.7309C52.7575 3.29119 53.7686 3.07134 54.891 3.07134C56.0134 3.07134 57.0261 3.29119 57.9297 3.7309C58.8333 4.17062 59.6004 4.76102 60.2346 5.5058C60.872 6.25058 61.3638 7.11574 61.711 8.10132C62.0581 9.0869 62.231 10.154 62.231 11.2993C62.231 12.4216 62.0581 13.4856 61.711 14.4911C61.3638 15.4967 60.872 16.3803 60.2346 17.1461C59.6004 17.9119 58.8333 18.5171 57.9297 18.9661C57.0261 19.4119 56.0134 19.6348 54.891 19.6348Z" fill="black"/>
<path d="M64.8159 5.16167H68.188V19.3972H64.8159V5.16167ZM64.4389 1.6687C64.4389 1.18192 64.6172 0.76711 64.9737 0.42914C65.33 0.0879938 65.7555 -0.0761719 66.2502 -0.0761719C66.7447 -0.0761719 67.1716 0.0879938 67.5311 0.42914C67.8843 0.76711 68.061 1.18192 68.061 1.6687C68.061 2.15863 67.8843 2.57344 67.5311 2.91141C67.1778 3.24938 66.7447 3.41837 66.2502 3.41837C65.7555 3.41837 65.33 3.24938 64.9737 2.91141C64.6172 2.57344 64.4389 2.15863 64.4389 1.6687Z" fill="black"/>
<path d="M76.9693 11.296L72.73 5.16167H76.9341L79.5064 9.20292L82.1599 5.16167H86.364L82.1247 11.296L86.7673 19.3972H82.5631L79.5767 14.4822L76.5904 19.3972H72.3862L76.9693 11.296Z" fill="black"/>
<path d="M95.1582 16.5995C95.7955 16.5995 96.3572 16.4614 96.8459 16.1868C97.3346 15.9153 97.7368 15.5475 98.0522 15.0855C98.3646 14.6234 98.5969 14.0927 98.746 13.4892C98.8951 12.8858 98.9697 12.2447 98.9697 11.5661C98.9697 10.8906 98.8951 10.2495 98.746 9.6461C98.5969 9.04579 98.3646 8.51508 98.0522 8.05305C97.7368 7.59102 97.3346 7.22028 96.8459 6.94564C96.3572 6.67101 95.7955 6.53278 95.1582 6.53278C94.5177 6.53278 93.953 6.67101 93.4643 6.94564C92.9756 7.22028 92.5749 7.59102 92.2625 8.05305C91.95 8.51508 91.7163 9.04579 91.5642 9.6461C91.4121 10.2495 91.336 10.8906 91.336 11.5661C91.336 12.2447 91.4121 12.8858 91.5642 13.4892C91.7163 14.0927 91.95 14.6234 92.2625 15.0855C92.5749 15.5475 92.9756 15.9153 93.4643 16.1868C93.953 16.4614 94.5177 16.5995 95.1582 16.5995ZM95.1582 19.6348C94.0357 19.6348 93.0231 19.4119 92.1195 18.9661C91.2159 18.5171 90.4472 17.9119 89.8098 17.1461C89.1724 16.3803 88.6822 15.4967 88.3335 14.4911C87.9878 13.4856 87.815 12.4216 87.815 11.2993C87.815 10.154 87.9878 9.0869 88.3335 8.10132C88.6822 7.11574 89.1724 6.25058 89.8098 5.5058C90.4472 4.76102 91.2159 4.17062 92.1195 3.7309C93.0231 3.29119 94.0357 3.07134 95.1582 3.07134C96.2806 3.07134 97.2932 3.29119 98.1968 3.7309C99.1004 4.17062 99.8675 4.76102 100.502 5.5058C101.139 6.25058 101.631 7.11574 101.978 8.10132C102.325 9.0869 102.5 10.154 102.5 11.2993C102.5 12.4216 102.325 13.4856 101.978 14.4911C101.631 15.4967 101.139 16.3803 100.502 17.1461C99.8675 17.9119 99.1004 18.5171 98.1968 18.9661C97.2932 19.4119 96.2806 19.6348 95.1582 19.6348Z" fill="black"/>
</svg> 